<svg width="535" height="533" viewBox="0 0 535 533" fill="none" xmlns="http://www.w3.org/2000/svg">
<rect x="2.8125" width="532" height="532" rx="50" fill="#FF8A65"/>
<circle cx="268.812" cy="266" r="156" fill="white"/>
<circle cx="269.312" cy="265.5" r="99.5" fill="#FF8A65"/>
<rect x="358.709" y="29.7368" width="25.0076" height="169.746" rx="12.5038" transform="rotate(-30.6185 358.709 29.7368)" fill="white"/>
<path d="M360.253 73.177C349.516 55.0355 355.519 31.6249 373.661 20.8881V20.8881C377.289 18.7408 381.971 19.9413 384.118 23.5696L453.096 140.118L422.284 158.354C417.531 161.167 411.398 159.594 408.585 154.841L360.253 73.177Z" fill="white"/>
<rect x="90.6147" y="377.242" width="31.5438" height="180.347" rx="15.7719" transform="rotate(-30.6185 90.6147 377.242)" fill="white"/>
<rect x="41.1665" y="208.676" width="15.3516" height="100" rx="7.6758" transform="rotate(-30 41.1665 208.676)" fill="white"/>
<rect x="20.644" y="220.524" width="15.0488" height="100" rx="7.52438" transform="rotate(-30 20.644 220.524)" fill="white"/>
<rect x="61.3914" y="321.707" width="23.2216" height="52.4429" rx="11.6108" transform="rotate(-30 61.3914 321.707)" fill="white"/>
<rect y="232.443" width="14.8865" height="100" rx="7.44327" transform="rotate(-30 0 232.443)" fill="white"/>
<path fill-rule="evenodd" clip-rule="evenodd" d="M54.0911 309.519L28.9382 324.809C27.4994 325.684 27.7199 327.836 29.3062 328.401L90.5213 350.221C91.7176 350.648 93.0033 349.866 93.1748 348.608L101.952 284.24C102.18 282.572 100.369 281.386 98.9305 282.261L73.9128 297.469L77.0651 302.956L56.9584 314.509L54.0911 309.519Z" fill="white"/>
<path fill-rule="evenodd" clip-rule="evenodd" d="M77.1973 288.755L64.2564 296.226L68.0189 302.743C69.2568 304.887 68.5222 307.629 66.378 308.867C64.2339 310.105 61.4922 309.37 60.2543 307.226L56.4918 300.709L43.5508 308.181L43.7519 308.529C44.9898 310.673 44.2552 313.415 42.111 314.653C39.9669 315.891 37.2252 315.156 35.9873 313.012L35.7862 312.664L31.4727 315.154L39.7194 329.438L100.111 294.571L91.8638 280.287L84.9619 284.272L85.1629 284.62C86.4008 286.764 85.6662 289.506 83.5221 290.744C81.3779 291.982 78.6363 291.247 77.3983 289.103L77.1973 288.755Z" fill="white"/>
<path fill-rule="evenodd" clip-rule="evenodd" d="M534.813 274.225L482.864 186.45C478.427 178.954 468.754 176.473 461.258 180.91C453.762 185.346 451.282 195.02 455.718 202.516L531.506 330.572C532.411 332.102 533.534 333.422 534.813 334.518V274.225Z" fill="white"/>
<path fill-rule="evenodd" clip-rule="evenodd" d="M2.8125 286.245L24.9746 324.631C27.0942 328.302 31.7887 329.56 35.4599 327.44C39.1312 325.321 40.3891 320.626 38.2695 316.955L2.8125 255.542V286.245Z" fill="white"/>
</svg>
